<?xml version="1.0" encoding="UTF-8"?>
<svg version="1.1" xmlns="http://www.w3.org/2000/svg" width="1024" height="1024">
<path d="M0 0 C337.92 0 675.84 0 1024 0 C1024 337.92 1024 675.84 1024 1024 C686.08 1024 348.16 1024 0 1024 C0 686.08 0 348.16 0 0 Z " fill="#FEBA11" transform="translate(0,0)"/>
<path d="M0 0 C1.07809433 0.21484543 2.15618866 0.42969086 3.26695251 0.65104675 C5.53436125 1.10505387 7.8009203 1.5633232 10.06665039 2.02563477 C13.51811866 2.72858989 16.97257366 3.41506164 20.42773438 4.09960938 C22.63952013 4.5445938 24.85111553 4.99052562 27.0625 5.4375 C28.08666519 5.64075394 29.11083038 5.84400787 30.16603088 6.05342102 C44.72853274 9.05143441 44.72853274 9.05143441 48.96484375 13.60546875 C50.78787331 17.63132569 51.18540087 20.57726323 50.46484375 24.91796875 C48.85363847 29.10710247 46.89722735 32.02189509 43.46484375 34.91796875 C29.82995011 39.4629333 13.80854653 33.64692846 0.42578125 30.56298828 C-2.89102163 29.84044596 -6.16515718 29.30948335 -9.53515625 28.91796875 C-9.63054688 30.03816406 -9.7259375 31.15835938 -9.82421875 32.3125 C-10.78286977 40.93194995 -12.69050607 49.44224701 -14.37304688 57.94458008 C-16.92435297 70.87888772 -18.87194209 83.84022229 -20.53515625 96.91796875 C-19.34364708 96.91130692 -19.34364708 96.91130692 -18.12806702 96.9045105 C-10.61092801 96.86429448 -3.0938418 96.83391393 4.42337704 96.81434441 C8.28726257 96.80394504 12.15105856 96.78985689 16.01489258 96.76708984 C19.74964327 96.74522326 23.4843083 96.73337125 27.21911812 96.72821426 C28.63793853 96.72454314 30.05675471 96.71737493 31.47553825 96.70650864 C48.9796774 96.57788196 48.9796774 96.57788196 56.33984375 100.41796875 C62.57492397 107.75335724 62.63279173 119.8180077 63.82739258 129.04101562 C64.15270451 131.54574638 64.49239268 134.0482242 64.83398438 136.55078125 C65.04902755 138.16525153 65.26324857 139.77983158 65.4765625 141.39453125 C65.6264991 142.49953476 65.6264991 142.49953476 65.77946472 143.62686157 C66.88047677 152.24647928 67.02198886 159.24198014 62.46484375 166.91796875 C59.24440671 170.84287639 56.10653003 171.26593278 51.27734375 172.015625 C50.19066406 172.18715088 49.10398437 172.35867676 47.984375 172.53540039 C46.73720703 172.72477173 46.73720703 172.72477173 45.46484375 172.91796875 C45.31450684 173.82522705 45.16416992 174.73248535 45.00927734 175.66723633 C44.42158773 179.21092031 43.83316839 182.75448139 43.24414062 186.29794312 C42.97346434 187.9265162 42.70295794 189.55511752 42.43261719 191.18374634 C40.96605761 200.01463225 39.48871213 208.84301825 37.94140625 217.66015625 C35.01193237 234.38793433 32.36406211 251.13061718 29.96112061 267.94268799 C28.13841359 280.67484569 26.11709536 293.32757435 23.46484375 305.91796875 C25.88374099 305.85657542 28.29751512 305.76905704 30.71484375 305.66796875 C31.37742187 305.65378906 32.04 305.63960938 32.72265625 305.625 C44.451875 305.07173496 54.48747222 299.61490877 64.52734375 293.98046875 C89.59392898 280.05130559 89.59392898 280.05130559 99.46484375 281.91796875 C104.74232035 284.05512869 107.95746356 286.75395954 110.46484375 291.91796875 C110.93359375 294.828125 110.93359375 294.828125 110.96484375 297.98046875 C110.99578125 299.00269531 111.02671875 300.02492188 111.05859375 301.078125 C109.41499307 311.70746362 103.25990871 321.35895726 98.15234375 330.66796875 C90.21502511 345.21835719 82.8330528 359.97742301 75.824646 374.99655151 C74.09650207 378.69730721 72.35870339 382.39352524 70.62109375 386.08984375 C70.27061981 386.83544052 69.92014587 387.58103729 69.55905151 388.34922791 C50.20285116 429.4972384 30.20207527 470.35790396 1.46484375 505.91796875 C0.84319336 506.69406494 0.84319336 506.69406494 0.20898438 507.48583984 C-13.93169494 525.01193898 -30.36971853 543.37694449 -50.53515625 553.91796875 C-47.65957466 556.79355034 -44.16285686 557.39363646 -40.34765625 558.48046875 C-39.23293945 558.81208008 -39.23293945 558.81208008 -38.09570312 559.15039062 C-30.91585593 561.2332385 -23.94104284 562.07638197 -16.4609375 562.15625 C-15.32464905 562.17094078 -15.32464905 562.17094078 -14.16540527 562.18592834 C9.42026628 562.46528316 9.42026628 562.46528316 32.46484375 557.91796875 C33.29612793 557.66644043 34.12741211 557.41491211 34.98388672 557.15576172 C43.90635936 554.50533434 43.90635936 554.50533434 52.46484375 550.91796875 C59.59715144 550.21643029 59.59715144 550.21643029 63.40234375 553.29296875 C65.98755276 556.58323476 66.67739481 558.00791318 66.40234375 562.10546875 C65.65447121 567.54058893 63.78559522 570.55478923 59.46484375 573.91796875 C50.10830315 579.66821357 40.02355265 583.11930648 29.46484375 585.91796875 C28.32789063 586.23894531 27.1909375 586.55992187 26.01953125 586.890625 C4.49403282 591.97631968 -20.25305436 590.02233759 -41.53515625 584.91796875 C-42.20691895 584.7679541 -42.87868164 584.61793945 -43.57080078 584.46337891 C-55.03731707 581.82001686 -65.47115149 576.31541538 -76.03613281 571.29785156 C-92.673992 563.409822 -109.33255213 556.24192255 -127.53515625 552.91796875 C-128.55738281 552.7271875 -129.57960938 552.53640625 -130.6328125 552.33984375 C-148.92900426 550.36187707 -167.84643586 551.68259461 -185.95996094 554.52099609 C-188.24534187 554.87329315 -190.53005353 555.18075905 -192.82421875 555.46875 C-221.49772699 559.30839905 -249.52325718 569.60466037 -276.85205078 578.62133789 C-317.78913076 592.07688544 -353.01448358 593.35156686 -394.94335938 583.35229492 C-404.78238165 581.02611065 -414.67517039 579.03645912 -424.59765625 577.10546875 C-425.76572815 576.87614151 -425.76572815 576.87614151 -426.95739746 576.6421814 C-463.29644012 569.52327815 -497.95037939 572.60569051 -532.83984375 585.1015625 C-538.07042016 586.68589651 -544.57997104 587.36495209 -549.609375 584.90234375 C-553.50980081 581.76689249 -554.3771653 579.08315204 -555.03515625 574.23046875 C-554.91637086 569.59783849 -553.13722824 567.09464204 -549.9296875 563.85546875 C-529.95417302 547.69257286 -495.82537528 543.1664036 -470.78125 542.6015625 C-469.99492691 542.5807814 -469.20860382 542.56000031 -468.39845276 542.53858948 C-465.92326318 542.47398287 -463.44798135 542.41462929 -460.97265625 542.35546875 C-459.2792879 542.31219864 -457.58592838 542.26858188 -455.89257812 542.22460938 C-451.77352843 542.11839484 -447.65438738 542.01688628 -443.53515625 541.91796875 C-447.06461697 538.28924195 -450.64126387 534.77134827 -454.4765625 531.46484375 C-465.1280387 522.26246075 -474.92980036 512.04966766 -483.53515625 500.91796875 C-484.39907955 499.84217136 -485.26507822 498.76803833 -486.1328125 497.6953125 C-493.06851588 489.07677162 -499.42882984 480.13968173 -505.53515625 470.91796875 C-506.01065918 470.20576172 -506.48616211 469.49355469 -506.97607422 468.75976562 C-532.38238519 430.4932605 -547.92792607 387.51535252 -557.8671875 342.91357422 C-558.43668182 340.35959201 -559.0279312 337.81231411 -559.62890625 335.265625 C-561.40353184 327.30445743 -562.90684024 319.05009528 -561.53515625 310.91796875 C-559.30686058 307.42136642 -556.42882575 306.21585858 -552.53515625 304.91796875 C-549.58551512 304.83255975 -546.66012606 304.80213948 -543.7109375 304.8203125 C-542.41883614 304.82243492 -542.41883614 304.82243492 -541.10063171 304.82460022 C-538.34960456 304.83019735 -535.59865881 304.84274929 -532.84765625 304.85546875 C-530.98242305 304.86048412 -529.11718858 304.86504696 -527.25195312 304.86914062 C-522.67965614 304.88016583 -518.10742 304.89742848 -513.53515625 304.91796875 C-513.54039307 304.29865479 -513.54562988 303.67934082 -513.55102539 303.04125977 C-513.57203698 300.18767342 -513.58489239 297.33410344 -513.59765625 294.48046875 C-513.60603516 293.50658203 -513.61441406 292.53269531 -513.62304688 291.52929688 C-513.63850784 286.90646704 -513.52728041 282.49578887 -512.828125 277.921875 C-512.38018976 274.66575783 -512.38018976 274.66575783 -513.86328125 271.75390625 C-514.4975 271.27179688 -515.13171875 270.7896875 -515.78515625 270.29296875 C-520.69693846 266.45690744 -522.24852929 261.99705269 -523.07421875 256.0078125 C-523.12901542 254.6244864 -523.15679604 253.23987565 -523.16015625 251.85546875 C-523.16249268 251.12102539 -523.1648291 250.38658203 -523.16723633 249.62988281 C-522.90552387 241.57157377 -519.7214902 235.69498902 -515.53515625 228.91796875 C-514.96410156 227.9640625 -514.39304687 227.01015625 -513.8046875 226.02734375 C-513.38574219 225.33125 -512.96679688 224.63515625 -512.53515625 223.91796875 C-513.11265625 223.71171875 -513.69015625 223.50546875 -514.28515625 223.29296875 C-518.20366419 220.89832501 -520.11099399 217.19045553 -521.53515625 212.91796875 C-523.37557803 186.97510014 -511.61542865 161.09151703 -495.01611328 141.59814453 C-469.70478581 112.88193028 -435.71370373 95.09601842 -397.53515625 90.91796875 C-392.42700514 90.65638539 -387.33661752 90.63076943 -382.22265625 90.66796875 C-381.19860687 90.67361847 -381.19860687 90.67361847 -380.15386963 90.67938232 C-335.93537323 90.96518023 -296.67819302 108.97227716 -265.41015625 139.98046875 C-264.79140625 140.61984375 -264.17265625 141.25921875 -263.53515625 141.91796875 C-258.84045979 140.37377748 -255.4589955 137.76326833 -251.59765625 134.79296875 C-233.33457578 121.14918966 -209.80079979 109.22462736 -186.83251953 106.61035156 C-181.89742349 106.12397614 -181.89742349 106.12397614 -178.12475586 103.23681641 C-177.02807263 100.99444199 -176.25458154 98.80781415 -175.53515625 96.41796875 C-175.25881348 95.60078369 -174.9824707 94.78359863 -174.69775391 93.94165039 C-173.92888308 91.61212454 -173.22329821 89.27238976 -172.53515625 86.91796875 C-172.21289062 85.89574219 -171.890625 84.87351562 -171.55859375 83.8203125 C-170.17050188 78.54389101 -170.81144937 75.33654185 -172.78125 70.328125 C-175.44247043 61.82049284 -173.53940555 53.6099803 -169.53515625 45.91796875 C-164.52462078 37.35156939 -157.21580211 30.51493243 -147.53515625 27.91796875 C-133.41371826 26.78057259 -122.66813666 28.74243545 -111.53515625 37.91796875 C-107.80961001 41.64351499 -106.71394524 44.90811554 -105.53515625 49.91796875 C-104.23578125 49.97984375 -102.93640625 50.04171875 -101.59765625 50.10546875 C-93.77284923 50.9789928 -87.02924931 55.42387569 -81.53515625 60.91796875 C-75.6647606 69.18157127 -72.11333624 77.64417252 -73.53515625 87.91796875 C-75.02015625 91.38296875 -75.02015625 91.38296875 -76.53515625 94.91796875 C-63.17015625 95.41296875 -63.17015625 95.41296875 -49.53515625 95.91796875 C-49.53515625 93.60796875 -49.53515625 91.29796875 -49.53515625 88.91796875 C-49.30786325 87.21047997 -49.02723472 85.50902809 -48.6875 83.8203125 C-48.49800781 82.86954834 -48.30851563 81.91878418 -48.11328125 80.93920898 C-47.79617188 79.41275757 -47.79617188 79.41275757 -47.47265625 77.85546875 C-47.25222656 76.77273682 -47.03179688 75.69000488 -46.8046875 74.57446289 C-44.76076609 64.69106406 -42.47353241 54.86670819 -40.125 45.05175781 C-38.69655803 39.05074888 -37.33556604 33.0576039 -36.1875 26.99609375 C-35.87619141 25.37392944 -35.87619141 25.37392944 -35.55859375 23.71899414 C-35.18267509 21.72145635 -34.82311866 19.72072958 -34.484375 17.71655273 C-33.04321087 10.10199285 -30.10643744 3.53690829 -23.72265625 -1.14453125 C-15.81652678 -3.46986345 -7.87589149 -1.61292217 0 0 Z " fill="#4D240F" transform="translate(742.53515625,177.08203125)"/>
<path d="M0 0 C8.39690121 -0.00126154 16.79379868 -0.00498402 25.19069856 -0.00973773 C84.24330094 -0.04089098 143.28014986 0.26518736 202.32683748 1.12283063 C201.8668192 3.03599044 201.40182164 4.9479534 200.93474764 6.85940289 C200.67634096 7.92425412 200.41793428 8.98910535 200.1516971 10.08622479 C199.08653818 14.00745906 197.58728703 17.47533422 195.70183748 21.06033063 C195.35411287 21.73434918 195.00638826 22.40836774 194.64812654 23.1028111 C183.0966823 44.95369203 164.49007977 64.93600339 145.01433748 79.97048688 C142.6263307 81.88297487 140.37275782 83.86901911 138.10418123 85.91970563 C133.55291907 89.98914134 128.79679372 93.68327167 123.88933748 97.31033063 C123.02389314 97.95252545 122.15844881 98.59472028 121.26677889 99.25637555 C119.48550743 100.57568554 117.70263477 101.89283646 115.91814607 103.20779157 C113.48886694 105.00308698 111.07285227 106.81486505 108.65886873 108.63064313 C98.66128581 116.08798162 88.42574768 122.44150301 77.32683748 128.12283063 C76.44801912 128.57980329 75.56920076 129.03677594 74.66375154 129.50759625 C56.17154543 139.04738007 36.94321618 146.29480851 17.32683748 153.12283063 C16.60417696 153.37460065 15.88151644 153.62637067 15.13695711 153.88577008 C-15.95181531 164.67530482 -46.90884112 172.63004995 -79.67316252 176.12283063 C-81.19323077 176.30006631 -82.71324753 176.47774392 -84.23322111 176.65578961 C-96.73159497 178.0711618 -109.10052408 178.48669624 -121.67316252 178.43533063 C-123.14417418 178.4315994 -123.14417418 178.4315994 -124.64490324 178.42779279 C-158.94913593 178.29385439 -193.04480109 174.15052235 -224.67316252 160.12283063 C-226.0718759 159.511815 -226.0718759 159.511815 -227.49884611 158.88845563 C-241.14054838 152.86278438 -253.61884977 145.89691641 -265.67316252 137.12283063 C-266.27354338 136.69598981 -266.87392424 136.26914899 -267.49249846 135.8293736 C-309.61662269 105.68822337 -335.45065058 58.54309535 -344.40118986 8.30080914 C-344.70229335 5.88954866 -344.69062074 3.55066668 -344.67316252 1.12283063 C-255.33110821 0.65517211 -165.98815185 0.18926957 0 0 Z " fill="#FEBA11" transform="translate(568.6731625199318,510.87716937065125)"/>
<path d="M0 0 C13.72915665 -0.03056947 27.45831399 -0.05096531 41.1875 -0.0625 C42.19920635 -0.06335602 43.2109127 -0.06421204 44.25327682 -0.06509399 C76.8480634 -0.08946706 109.41518264 0.1337134 142 1 C139.9532693 18.76469684 137.28063898 36.4036183 134.39154053 54.04815674 C133.95288122 56.73357192 133.51845828 59.41966475 133.08413124 62.10578346 C131.09692191 74.39265011 129.07928827 86.6733097 126.93359375 98.93359375 C124.89313187 110.61163116 122.94894318 122.30634091 121 134 C86.68 134 52.36 134 17 134 C9.85675271 72.40633943 9.85675271 72.40633943 8.5 56.25 C7.06521278 39.54186648 3.97592564 23.0618734 0.99067688 6.57333374 C0 1.09532953 0 1.09532953 0 0 Z " fill="#FEBB11" transform="translate(620,349)"/>
<path d="M0 0 C15.54750602 11.99142751 22.29981539 30.79544871 25.375 49.5625 C28.61277281 75.84388108 23.74649145 105.74403796 7.1875 127.0625 C5.85758252 128.6045833 4.5033801 130.12607716 3.125 131.625 C2.07699219 132.79289062 2.07699219 132.79289062 1.0078125 133.984375 C-11.65836788 147.41683675 -29.00939186 155.34281673 -47.44238281 156.02978516 C-65.44002799 156.28493586 -81.59362359 150.38609928 -94.76269531 137.94604492 C-106.77989978 125.97934989 -111.33086727 111.74198229 -111.5 95.125 C-111.40493692 85.04981023 -110.1595048 76.77515255 -105.875 67.625 C-105.4521875 66.68269531 -105.029375 65.74039063 -104.59375 64.76953125 C-90.55901087 36.49605968 -61.90812669 15.3148919 -32.875 4.625 C-7.77100929 -3.71656966 -7.77100929 -3.71656966 0 0 Z " fill="#FEBA11" transform="translate(570.875,310.375)"/>
<path d="M0 0 C13.12607192 11.71550897 13.12607192 11.71550897 13.6171875 16.3359375 C12.59350586 17.96337891 12.59350586 17.96337891 11.01953125 19.5625 C7.53910757 23.34124571 4.85752615 27.33752415 2.1796875 31.7109375 C1.74076172 32.39542969 1.30183594 33.07992187 0.84960938 33.78515625 C-2.37838492 39.03006474 -4.76056068 44.47725587 -7.06274414 50.17041016 C-7.38362251 50.95708572 -7.70450089 51.74376129 -8.03510284 52.55427551 C-8.82032045 54.48041892 -9.60193307 56.40803127 -10.3828125 58.3359375 C-34.71276301 58.38261301 -59.04270683 58.41790449 -83.37269306 58.43956184 C-94.66896878 58.44988402 -105.96521672 58.46396232 -117.26147461 58.48681641 C-127.10477806 58.50672149 -136.94806139 58.51964708 -146.7913844 58.52411449 C-152.00560984 58.52672676 -157.21977772 58.53288623 -162.43398476 58.54739761 C-167.3381512 58.56093602 -172.24223617 58.56516774 -177.14641953 58.56215286 C-178.94961553 58.56270471 -180.75281415 58.56670436 -182.55599403 58.57434845 C-185.0116992 58.58425122 -187.46709392 58.58192358 -189.92280579 58.57644653 C-191.001109 58.58518506 -191.001109 58.58518506 -192.10119611 58.59410012 C-195.76113956 58.57192951 -197.24723351 58.42632349 -200.3828125 56.3359375 C-202.42347599 43.18499501 -193.50625132 27.41225593 -186.0625 17.0546875 C-166.50904669 -9.39373109 -137.63627442 -25.41134567 -105.3828125 -30.6640625 C-66.34127218 -35.92189797 -30.02836518 -25.39490824 0 0 Z " fill="#FEBB11" transform="translate(447.3828125,324.6640625)"/>
<path d="M0 0 C2.61744946 -0.0043612 5.23318946 -0.04080097 7.8503418 -0.07861328 C24.4315149 -0.18846097 40.28413331 2.64303923 55.87573242 8.33935547 C57.12990967 8.79568359 57.12990967 8.79568359 58.40942383 9.26123047 C59.41279785 9.62732422 60.41617187 9.99341797 61.44995117 10.37060547 C62.77448241 10.84765634 64.09920442 11.32417772 65.42407227 11.80029297 C69.24097285 13.17365063 73.05304916 14.55981042 76.86251831 15.9536438 C78.39569632 16.5141056 79.92962943 17.07250702 81.46438599 17.62863159 C109.94575118 27.97749795 109.94575118 27.97749795 113.44995117 35.37060547 C114.33329627 39.57246321 113.93234226 42.57810582 111.69995117 46.24560547 C106.51782079 51.13983972 101.11965724 51.00551316 94.25073242 50.81201172 C80.590753 49.90475929 67.14503048 44.32867017 54.30175781 39.9206543 C48.00256426 37.79440186 41.6660485 36.03908845 35.19995117 34.49560547 C34.35489014 34.29249756 33.5098291 34.08938965 32.63916016 33.88012695 C22.75438614 31.608251 13.06114548 31.1326806 2.93530273 31.07543945 C1.55336124 31.06408848 0.17145737 31.04391612 -1.21020508 31.01391602 C-23.7706809 30.52760518 -44.41880499 36.49794134 -65.61560059 43.65039062 C-72.42904892 45.94876463 -79.26454719 48.18031593 -86.10083008 50.40966797 C-86.77325619 50.62933479 -87.4456823 50.84900162 -88.13848495 51.07532501 C-99.76553179 54.86737833 -111.45344312 58.32731725 -123.30004883 61.37060547 C-124.02427032 61.55762024 -124.74849182 61.74463501 -125.49465942 61.93731689 C-130.16716812 63.13559702 -134.85243154 64.2747729 -139.55004883 65.37060547 C-140.69437378 65.63768311 -140.69437378 65.63768311 -141.86181641 65.91015625 C-144.26163171 66.46614873 -146.66315342 67.01392876 -149.06567383 67.55810547 C-149.79461853 67.7252002 -150.52356323 67.89229492 -151.27459717 68.06445312 C-159.31154045 69.85510207 -167.08106833 70.53196783 -175.29614258 70.57373047 C-176.21642242 70.58069946 -177.13670227 70.58766846 -178.08486938 70.59484863 C-181.0524759 70.61220616 -184.01989361 70.61857248 -186.98754883 70.62060547 C-187.99937225 70.62161255 -189.01119568 70.62261963 -190.05368042 70.62365723 C-205.43139583 70.61329006 -220.37516236 70.06714797 -235.55004883 67.37060547 C-236.40099121 67.22606934 -237.25193359 67.0815332 -238.12866211 66.93261719 C-243.97894413 65.92116694 -249.76662495 64.70997009 -255.55004883 63.37060547 C-257.02610596 63.03174316 -257.02610596 63.03174316 -258.53198242 62.68603516 C-261.64828901 61.95823118 -264.7560149 61.20148083 -267.86254883 60.43310547 C-268.82370605 60.20453857 -269.78486328 59.97597168 -270.77514648 59.74047852 C-277.8427719 57.9251766 -283.35353768 55.66537219 -287.55004883 49.37060547 C-287.81567383 47.24951172 -287.81567383 47.24951172 -287.80004883 44.93310547 C-287.80520508 44.17126953 -287.81036133 43.40943359 -287.81567383 42.62451172 C-287.50844809 40.01761094 -287.03184882 38.54420968 -285.55004883 36.37060547 C-278.78739843 31.11076627 -269.28391845 32.812775 -261.2434082 33.76025391 C-254.18473356 34.70076941 -247.14653912 35.7637437 -240.11523438 36.88989258 C-231.42289792 38.06192644 -222.82449533 38.52874885 -214.05786133 38.53857422 C-212.9912326 38.54190262 -211.92460388 38.54523102 -210.82565308 38.54866028 C-208.57851589 38.55369199 -206.33137133 38.55606978 -204.08422852 38.5559082 C-200.71853654 38.55807744 -197.3531823 38.57622644 -193.98754883 38.59521484 C-176.65878834 38.6415071 -159.23965079 38.1905899 -142.30004883 34.18310547 C-141.35500488 33.96662354 -140.40996094 33.7501416 -139.4362793 33.52709961 C-136.46773185 32.83239026 -133.50827339 32.10796418 -130.55004883 31.37060547 C-129.1051709 31.01337402 -129.1051709 31.01337402 -127.63110352 30.64892578 C-113.72654597 27.14384751 -100.34702917 22.57458608 -86.9263916 17.58032227 C-58.72625118 7.10472916 -30.19327587 -0.00559705 0 0 Z " fill="#4D230F" transform="translate(589.550048828125,759.62939453125)"/>
<path d="M0 0 C2.92448034 1.22229333 5.50991692 2.69351285 8.21875 4.3359375 C17.577462 9.93539159 25.35781178 12.18077051 36.125 12.1875 C37.13304687 12.19974609 38.14109375 12.21199219 39.1796875 12.22460938 C44.73747224 12.23540818 49.71165805 11.77374755 55.10620117 10.45703125 C57.60640134 9.85365691 59.44785107 9.54257967 62 10 C64.37320468 11.48585839 66.23785865 12.86494144 68.3125 14.6875 C68.86228516 15.10322266 69.41207031 15.51894531 69.97851562 15.94726562 C72.92076774 18.52402058 73.94135886 20.21477738 74.23918152 24.20271301 C74.21076675 25.36663071 74.18235199 26.5305484 74.15307617 27.72973633 C74.1309758 28.90313065 74.10887543 30.07652496 74.08610535 31.28547668 C74.05769058 32.18126938 74.02927582 33.07706207 74 34 C48.58299721 34.11682397 23.16603468 34.20498375 -2.25118256 34.25906086 C-14.05296303 34.28483768 -25.85457663 34.3199785 -37.65625 34.37719727 C-47.94311208 34.42704789 -58.22985331 34.4592948 -68.51683283 34.47044247 C-73.96329363 34.47695835 -79.40940871 34.4922621 -84.85575867 34.52865028 C-89.98411952 34.5626357 -95.11199285 34.57304769 -100.24045563 34.56553841 C-102.1205892 34.5669118 -104.0007394 34.57682902 -105.88077545 34.59602737 C-108.45345953 34.62100599 -111.02431716 34.61488861 -113.5970459 34.60127258 C-114.33636903 34.61583679 -115.07569217 34.630401 -115.83741903 34.64540654 C-121.60727143 34.56319326 -125.49646903 32.55218151 -130 29 C-133.41276889 25.23720353 -135.15632725 22.68811511 -135.375 17.625 C-135.42398438 16.85414063 -135.47296875 16.08328125 -135.5234375 15.2890625 C-134.72567472 11.8003387 -132.96746369 10.91045156 -130 9 C-127.47025295 7.79352677 -124.88893788 6.81517585 -122.25 5.875 C-121.53553711 5.61638184 -120.82107422 5.35776367 -120.08496094 5.09130859 C-115.11546111 3.32520395 -110.25727332 1.63352035 -105 1 C-104.13890625 0.88269531 -103.2778125 0.76539063 -102.390625 0.64453125 C-93.26801981 -0.00884453 -86.17211105 3.41500249 -78.06005859 7.08496094 C-73.12800748 9.27568476 -68.06251357 11.1352468 -63 13 C-61.2365625 13.6496875 -61.2365625 13.6496875 -59.4375 14.3125 C-42.38947143 17.72210571 -28.92163133 10.3385763 -14.6730957 1.96801758 C-9.91972288 -0.78218281 -5.39917412 -0.72906046 0 0 Z " fill="#FDBC11" transform="translate(390,449)"/>
<path d="M0 0 C2.54817992 2.63355709 3.05369038 4.81122507 3.25 8.4375 C2.90234798 13.06127188 1.71901517 15.93973995 -1.4375 19.4375 C-6.24875436 23.46128359 -11.48874388 22.79045019 -17.4375 22.8125 C-39.11143904 23.34715435 -59.2732497 30.39013236 -79.4453125 37.921875 C-100.35959609 45.50154825 -131.69858823 51.66326518 -153.25 43.625 C-159.43516699 40.6586444 -159.43516699 40.6586444 -161.4375 37.4375 C-162.78278926 32.7779882 -162.92415771 29.53247984 -160.9375 25.0625 C-156.28273683 20.17499867 -150.87514406 19.09947715 -144.34375 18.48046875 C-142.98226426 18.34042018 -141.62085752 18.19960185 -140.25952148 18.05810547 C-139.55479706 17.98831482 -138.85007263 17.91852417 -138.12399292 17.84661865 C-116.87256416 15.69261533 -97.33603002 10.09697715 -77.03118896 3.64743042 C-20.30357278 -14.36304848 -20.30357278 -14.36304848 0 0 Z " fill="#4D230F" transform="translate(616.4375,830.5625)"/>
<path d="M0 0 C1.61505962 0.01211653 3.23014903 0.02070308 4.84524536 0.02601624 C9.20277712 0.05036445 13.55821081 0.12414369 17.91496658 0.20718384 C22.45012239 0.28525979 26.98560091 0.31788411 31.52124023 0.35546875 C39.94891868 0.43234811 48.3754674 0.54999796 56.80238628 0.68563652 C65.80157215 0.82953609 74.80103417 0.93672587 83.80075645 1.04057503 C101.26529302 1.24386648 118.72841302 1.50810531 136.19140625 1.81640625 C136.53199018 4.29476256 136.86397104 6.77380575 137.19140625 9.25390625 C137.33449219 10.28547852 137.33449219 10.28547852 137.48046875 11.33789062 C138.16930822 16.62719368 138.19140625 21.38315213 138.19140625 26.81640625 C83.08140625 26.81640625 27.97140625 26.81640625 -28.80859375 26.81640625 C-28.80859375 18.93112486 -28.80859375 18.93112486 -25.68359375 14.37890625 C-24.81347656 13.08146484 -24.81347656 13.08146484 -23.92578125 11.7578125 C-23.22710938 10.78714844 -22.5284375 9.81648438 -21.80859375 8.81640625 C-21.33166832 7.82217651 -21.33166832 7.82217651 -20.84510803 6.80786133 C-16.21471417 -1.52224027 -8.41664972 -0.21576588 0 0 Z " fill="#FCBB11" transform="translate(643.80859375,297.18359375)"/>
<path d="M0 0 C0.67397471 -0.00085442 1.34794942 -0.00170885 2.04234761 -0.00258917 C4.29324828 -0.00423195 6.54407388 0.00125767 8.79496765 0.00672913 C10.41144814 0.00701128 12.02792876 0.00685271 13.64440918 0.00628662 C18.02828204 0.00599976 22.41212754 0.01187856 26.79599404 0.01886058 C31.37908047 0.02511259 35.96216753 0.02569938 40.54525757 0.02688599 C49.22200909 0.02999384 57.89874802 0.0381999 66.57549399 0.04823548 C76.45450128 0.05941353 86.33350916 0.06491133 96.2125212 0.06993091 C116.53257223 0.08038295 136.85261192 0.09797186 157.1726532 0.12025452 C157.67800047 2.84852817 158.17709165 5.57770146 158.6726532 8.30775452 C158.81573914 9.0766803 158.95882507 9.84560608 159.10624695 10.63783264 C160.54301211 18.60845842 160.54301211 18.60845842 160.1726532 22.12025452 C156.76613349 25.52677422 153.02615941 25.29837766 148.3601532 25.37025452 C147.36370789 25.39603577 146.36726257 25.42181702 145.34062195 25.44837952 C137.92554689 24.68035695 131.19847333 20.12807412 124.6726532 16.74134827 C114.46090499 12.01157649 103.31331324 11.21867917 92.6726532 15.12025452 C86.3545559 17.84816749 80.30514425 21.11444113 74.2898407 24.44837952 C68.8445184 27.36892832 64.25219259 27.78395022 58.1726532 27.12025452 C54.70524506 26.03185478 51.54065014 24.49905847 48.2976532 22.87025452 C46.54963376 22.03795705 44.79963487 21.20980382 43.0476532 20.38587952 C42.2123407 19.99078186 41.3770282 19.5956842 40.5164032 19.18861389 C22.50584883 10.97880286 6.69930292 12.65863024 -11.8273468 18.12025452 C-13.2473363 18.6555699 -14.66197442 19.20540526 -16.0695343 19.77259827 C-19.76446477 21.09770327 -22.37373319 21.46939117 -26.2648468 21.37025452 C-27.80978821 21.34705139 -27.80978821 21.34705139 -29.38594055 21.32337952 C-31.8273468 21.12025452 -31.8273468 21.12025452 -32.8273468 20.12025452 C-33.22890459 16.586546 -33.1406688 14.65551293 -31.3273468 11.55775452 C-22.79243402 3.23621456 -11.72078636 -0.0089677 0 0 Z " fill="#FDBD12" transform="translate(276.8273468017578,408.87974548339844)"/>
<path d="M0 0 C2.875 1.375 2.875 1.375 5 4 C6.3794465 10.78010966 4.28279345 17.46600389 2.6875 24.03125 C0.803161 32.16816841 2.84572129 37.0555341 7 44 C8.76321989 46.60320877 10.57012484 49.15504551 12.44921875 51.67578125 C17.56818016 59.34777631 16.97103231 68.62859341 15.3828125 77.4140625 C13.04031181 85.93413138 8.56910993 96.95392672 1 102 C-2.80121737 102.41467826 -5.10847173 102.52577308 -8.4375 100.5625 C-11.03986105 96.29462788 -10.51514553 91.50315703 -9.52514648 86.69262695 C-8.89867235 84.40198051 -8.21826262 82.13849788 -7.5 79.875 C-4.30612748 69.99184841 -4.30612748 69.99184841 -6.5 60.125 C-8.73277528 55.97956058 -11.78070643 52.77933332 -15.09765625 49.46875 C-21.15308758 41.61036683 -21.09121063 31.87766004 -20.34912109 22.37255859 C-19.21297222 14.6515133 -15.02709016 7.50248517 -9.4375 2.125 C-6.25626781 -0.18085957 -3.9401399 -0.85655215 0 0 Z " fill="#4B220F" transform="translate(483,157)"/>
<path d="M0 0 C2.57229762 0.73280572 3.41602309 1.42056163 5.015625 3.57421875 C5.30859375 6.48168945 5.30859375 6.48168945 5.203125 10 C5.17992187 11.27166016 5.15671875 12.54332031 5.1328125 13.85351562 C5.09553474 15.19796734 5.05645612 16.54237026 5.015625 17.88671875 C4.93880878 20.50743201 4.87581099 23.12859489 4.828125 25.75 C4.79332031 26.91442627 4.75851562 28.07885254 4.72265625 29.27856445 C5.18703009 34.50238319 7.44047878 38.27829783 11.015625 42.01171875 C17.72480799 49.55330658 18.79965487 59.06155992 18.56640625 68.87890625 C17.80630273 78.87801456 12.90689888 91.23414342 6.015625 98.57421875 C2.87691312 100.14357469 0.47706678 99.92622978 -2.984375 99.57421875 C-5.921875 97.63671875 -5.921875 97.63671875 -7.984375 94.57421875 C-8.87301994 88.55118083 -7.53066106 83.51581109 -5.984375 77.69921875 C-3.29445837 68.2220534 -3.29445837 68.2220534 -3.984375 58.57421875 C-6.04787114 55.07469774 -8.33813489 51.89048953 -10.78515625 48.65625 C-16.30185042 40.92503916 -17.16445322 31.87381538 -17.234375 22.57421875 C-17.255 21.8884375 -17.275625 21.20265625 -17.296875 20.49609375 C-17.35480834 12.9068257 -13.95535531 7.64432025 -9.0234375 2.15625 C-6.03820841 -0.15987602 -3.68052176 -0.18659988 0 0 Z " fill="#4C220F" transform="translate(434.984375,157.42578125)"/>
<path d="M0 0 C2.82424288 2.19022918 4.41508603 3.83017207 6 7 C6.10158687 8.43632545 6.18231427 9.87417829 6.25 11.3125 C6.62790166 14.80950047 7.01899026 16.02819766 9.0625 19.0625 C13.4136096 21.9323808 17.20369244 21.45917227 22.1171875 20.65234375 C25.57067802 20.08545002 27.61911507 19.83439786 30.875 21.25 C33.3090472 23.25450946 34.80782289 24.91976236 35.37109375 28.0859375 C35.49860347 32.48127263 35.49903026 34.3660967 32.6875 37.9375 C27.96873184 41.55888022 25.10719638 42.24216082 19.3125 42.375 C11.64557839 42.74485039 6.51757384 43.43357097 1.03125 48.99609375 C-4.67448742 55.67839008 -8.83294398 63.30867852 -13 71 C-13.66 71 -14.32 71 -15 71 C-15 70.34 -15 69.68 -15 69 C-15.53625 68.773125 -16.0725 68.54625 -16.625 68.3125 C-19.78500863 66.56617944 -22.2676983 64.3597151 -25 62 C-23.3669244 56.83948111 -21.56022652 51.8280586 -19.484375 46.828125 C-19.03835938 45.75175781 -18.59234375 44.67539062 -18.1328125 43.56640625 C-17.2030676 41.33659432 -16.26542625 39.11006011 -15.3203125 36.88671875 C-14.87945313 35.81550781 -14.43859375 34.74429688 -13.984375 33.640625 C-13.57928711 32.67672852 -13.17419922 31.71283203 -12.75683594 30.71972656 C-11.90484435 27.65805358 -12.06062237 26.00880493 -13 23 C-13.515625 22.13375 -14.03125 21.2675 -14.5625 20.375 C-16.6066238 15.57575281 -16.72841718 11.14591491 -16 6 C-12.07674482 -0.53875863 -7.20148212 -1.04172383 0 0 Z " fill="#FCBD12" transform="translate(610,229)"/>
<path d="M0 0 C0.66 0 1.32 0 2 0 C2.43452586 4.47931447 2.86140801 8.95927788 3.28173828 13.43994141 C3.42523427 14.95868752 3.57068514 16.47725043 3.71826172 17.99560547 C3.93212641 20.19972119 4.13854432 22.40443812 4.34375 24.609375 C4.40937134 25.26927429 4.47499268 25.92917358 4.54260254 26.60906982 C5.10693528 32.80821384 5 38.68389955 5 45 C-9.19 45 -23.38 45 -38 45 C-38 43.35 -38 41.7 -38 40 C-36.12890625 38.26171875 -36.12890625 38.26171875 -33.5625 36.6875 C-20.70763749 28.26847033 -11.84064571 17.00292277 -3.27368164 4.41943359 C-2.23008106 2.91217467 -1.12053511 1.45097647 0 0 Z " fill="#FDBE12" transform="translate(606,438)"/>
<path d="M0 0 C2.9375 2.4375 2.9375 2.4375 5 5 C5.33 5.33 5.66 5.66 6 6 C6.55065056 10.87461149 6.72054129 14.78253367 4.1875 19.0625 C1.33038355 21.59308886 -0.59124318 21.96215215 -4.375 22.3125 C-8.59334314 21.94884973 -10.04884992 20.95115008 -13 18 C-14.72320188 14.55359623 -14.3723512 10.7757718 -14 7 C-11.18935357 0.70950561 -6.76447487 -1.34498331 0 0 Z " fill="#4B210E" transform="translate(313,336)"/>
<path d="M0 0 C2.43119623 1.87015094 3.64069173 3.28138345 5 6 C5.34556568 9.01135805 5.57794337 11.09361171 5 14 C1.95615245 17.56352884 0.05687034 18.81458415 -4.5625 19.625 C-8.85907207 18.84380508 -10.29002083 17.34762132 -13 14 C-14.42662219 11.14675563 -14.31033868 9.16545451 -14 6 C-10.21913373 0.3287006 -6.77553046 -1.0062669 0 0 Z " fill="#4B210E" transform="translate(354,312)"/>
<path d="M0 0 C3.69059994 0.87426509 5.13063077 2.36922768 7.16015625 5.51171875 C7.85291755 8.35146756 7.8654144 10.67348474 7.16015625 13.51171875 C4.63681279 17.10557156 2.8887545 18.27326841 -1.27734375 19.63671875 C-6.18549472 19.46450293 -7.45492239 17.97723348 -10.83984375 14.51171875 C-12.29132278 11.6087607 -12.212234 9.73910096 -11.83984375 6.51171875 C-8.73642578 1.10576487 -6.27795379 -0.47163259 0 0 Z " fill="#4B210F" transform="translate(403.83984375,323.48828125)"/>
<path d="M0 0 C10.23 0 20.46 0 31 0 C31 0.33 31 0.66 31 1 C43.87 1.495 43.87 1.495 57 2 C57 2.33 57 2.66 57 3 C50.65034458 3.0510999 44.30074304 3.08589991 37.95092773 3.10986328 C35.7949831 3.11986317 33.63905182 3.13346747 31.4831543 3.15087891 C28.36764204 3.17539347 25.25231054 3.18654353 22.13671875 3.1953125 C21.18729904 3.20563507 20.23787933 3.21595764 19.25968933 3.22659302 C12.64831904 3.22767844 6.46204545 2.38121774 0 1 C0 0.67 0 0.34 0 0 Z " fill="#F2AE13" transform="translate(678,349)"/>
<path d="M0 0 C0 4.34233402 -2.65426865 6.26687974 -5.5 9.25 C-6.31778931 10.11854614 -6.31778931 10.11854614 -7.15209961 11.00463867 C-16.11077934 20.42280559 -16.11077934 20.42280559 -20 23 C-20.99 23 -21.98 23 -23 23 C-15.41 15.41 -7.82 7.82 0 0 Z " fill="#F6CC15" transform="translate(733,695)"/>
<path d="M0 0 C0.66 0 1.32 0 2 0 C2 3.96 2 7.92 2 12 C1.67 11.01 1.34 10.02 1 9 C-1.92879371 9.62759865 -4.36095629 10.58622659 -7 12 C-5.50328459 7.50985376 -3.16631659 3.52151236 0 0 Z " fill="#F6C715" transform="translate(606,438)"/>
<path d="M0 0 C1.18238479 3.54715438 0.81140594 5.38555534 0 9 C-0.350625 9.680625 -0.70125 10.36125 -1.0625 11.0625 C-2.23202603 13.47952046 -2.14727119 15.34911857 -2 18 C0.31 18.66 2.62 19.32 5 20 C5 20.33 5 20.66 5 21 C-0.625 21.25 -0.625 21.25 -4 19 C-5.61496699 12.24914699 -2.81310606 6.0155259 0 0 Z " fill="#F4C914" transform="translate(251,362)"/>
<path d="M0 0 C9.9 0 19.8 0 30 0 C30 0.33 30 0.66 30 1 C26.70913156 1.34153092 23.41720923 1.67166646 20.125 2 C19.2071875 2.09539063 18.289375 2.19078125 17.34375 2.2890625 C11.20690947 2.89410312 5.16533625 3.12065893 -1 3 C-0.67 2.01 -0.34 1.02 0 0 Z " fill="#592B10" transform="translate(388,765)"/>
<path d="M0 0 C0.99 0.33 1.98 0.66 3 1 C3 7.27 3 13.54 3 20 C-0.36932864 15.50756181 -0.37007917 13.04947734 -0.1875 7.75 C-0.17396484 7.00492187 -0.16042969 6.25984375 -0.14648438 5.4921875 C-0.11127204 3.66114584 -0.05746851 1.83047831 0 0 Z " fill="#5B2B0F" transform="translate(457,399)"/>
<path d="M0 0 C5.61 0.33 11.22 0.66 17 1 C16.67 1.99 16.34 2.98 16 4 C12.04 4 8.08 4 4 4 C4 3.34 4 2.68 4 2 C2.68 1.34 1.36 0.68 0 0 Z " fill="#5A2B0E" transform="translate(330,461)"/>
<path d="M0 0 C0.66 0.66 1.32 1.32 2 2 C1.96712417 4.72869407 1.43602229 7.2966618 1 10 C0.34 10 -0.32 10 -1 10 C-1.33 12.64 -1.66 15.28 -2 18 C-2.33 18 -2.66 18 -3 18 C-2.51679152 11.7945858 -1.66681876 6.00054754 0 0 Z " fill="#41190E" transform="translate(708,199)"/>
<path d="M0 0 C-2.34361181 3.22246624 -5.16238333 3.69953534 -8.92578125 4.52734375 C-11.68630547 5.15638976 -14.32987079 6.06545478 -17 7 C-14.53113696 4.1641438 -11.9005012 2.80399248 -8.5 1.25 C-7.5409375 0.80140625 -6.581875 0.3528125 -5.59375 -0.109375 C-3 -1 -3 -1 0 0 Z " fill="#3B160C" transform="translate(532,292)"/>
<path d="M0 0 C0.99 0.66 1.98 1.32 3 2 C2.2884375 3.175625 2.2884375 3.175625 1.5625 4.375 C-0.39736749 8.92189258 -0.71910872 13.09893144 -1 18 C-1.33 18 -1.66 18 -2 18 C-2.054348 15.9377952 -2.09294961 13.87517184 -2.125 11.8125 C-2.14820313 10.66394531 -2.17140625 9.51539063 -2.1953125 8.33203125 C-2.00484152 5.08259628 -1.39360127 2.91339479 0 0 Z " fill="#36130B" transform="translate(420,167)"/>
<path d="M0 0 C2 2 2 2 2.25 5.4375 C2 9 2 9 0 12 C-1 11 -1 11 -1.125 7.6875 C-1.02893262 4.85351237 -0.85249568 2.66404901 0 0 Z " fill="#F9C315" transform="translate(753,390)"/>
<path d="M0 0 C0.33 0.99 0.66 1.98 1 3 C0.21625 3.0825 -0.5675 3.165 -1.375 3.25 C-2.24125 3.4975 -3.1075 3.745 -4 4 C-4.33 4.66 -4.66 5.32 -5 6 C-5.33 6.66 -5.66 7.32 -6 8 C-8.625 8.75 -8.625 8.75 -11 9 C-7.56638098 5.36440339 -4.2026393 2.63886654 0 0 Z " fill="#36140F" transform="translate(498,307)"/>
<path d="M0 0 C0.33 0.66 0.66 1.32 1 2 C-8.41002278 3.14806378 -8.41002278 3.14806378 -13 3 C-8.54370064 0.02913376 -5.32064558 -0.12092376 0 0 Z " fill="#411A0D" transform="translate(457,793)"/>
<path d="M0 0 C0.33 0 0.66 0 1 0 C2.7610915 11.82994076 2.7610915 11.82994076 0.0625 15.75 C-0.618125 16.4925 -1.29875 17.235 -2 18 C-2.33 17.34 -2.66 16.68 -3 16 C-2.566875 14.7625 -2.566875 14.7625 -2.125 13.5 C-0.68747155 9.02768926 -0.3503881 4.66569423 0 0 Z " fill="#F8D614" transform="translate(809,325)"/>
<path d="M0 0 C0 0.66 0 1.32 0 2 C-1.98 2.99 -3.96 3.98 -6 5 C-6 4.34 -6 3.68 -6 3 C-6.61875 3.20625 -7.2375 3.4125 -7.875 3.625 C-8.57625 3.74875 -9.2775 3.8725 -10 4 C-10.66 3.34 -11.32 2.68 -12 2 C-10.56342755 1.66269158 -9.12569907 1.33030409 -7.6875 1 C-6.88699219 0.814375 -6.08648437 0.62875 -5.26171875 0.4375 C-3 0 -3 0 0 0 Z " fill="#EAB712" transform="translate(245,752)"/>
<path d="M0 0 C-0.66 0 -1.32 0 -2 0 C-2 0.66 -2 1.32 -2 2 C-6.455 2.495 -6.455 2.495 -11 3 C-10 1 -10 1 -7.1875 -0.1875 C-4.14038924 -0.96421451 -2.86250637 -1.10096399 0 0 Z " fill="#FACB14" transform="translate(523,805)"/>
<path d="M0 0 C0.66 0.66 1.32 1.32 2 2 C1.6442194 5.37991574 0.64284201 8.04288438 -1 11 C-1.125 3.375 -1.125 3.375 0 0 Z " fill="#3B170D" transform="translate(751,420)"/>
<path d="M0 0 C0 0.99 0 1.98 0 3 C-2.27837542 5.27837542 -3.50812237 5.96646289 -6.75 6.1875 C-7.86375 6.0946875 -7.86375 6.0946875 -9 6 C-8.38125 5.731875 -7.7625 5.46375 -7.125 5.1875 C-4.7004767 4.04443152 -4.7004767 4.04443152 -3 1 C-2.01 0.67 -1.02 0.34 0 0 Z " fill="#310F0D" transform="translate(357,325)"/>
<path d="M0 0 C2.10633718 1.70828921 2.93801608 2.52148416 3.29296875 5.26171875 C3.25816406 6.06222656 3.22335937 6.86273438 3.1875 7.6875 C3.16042969 8.49574219 3.13335937 9.30398437 3.10546875 10.13671875 C3.07066406 10.75160156 3.03585937 11.36648437 3 12 C2.67 12 2.34 12 2 12 C1.67 9.03 1.34 6.06 1 3 C0.34 3 -0.32 3 -1 3 C-0.67 2.01 -0.34 1.02 0 0 Z " fill="#F6D012" transform="translate(429,213)"/>
<path d="M0 0 C0 0.99 0 1.98 0 3 C-1.96466413 4.06775224 -3.96855359 5.06553465 -6 6 C-6.66 5.67 -7.32 5.34 -8 5 C-2.25 0 -2.25 0 0 0 Z " fill="#3B150D" transform="translate(700,603)"/>
<path d="M0 0 C0.66 1.32 1.32 2.64 2 4 C1.01 4.33 0.02 4.66 -1 5 C-1.33 6.65 -1.66 8.3 -2 10 C-2.6875 8.375 -2.6875 8.375 -3 6 C-1.5625 2.75 -1.5625 2.75 0 0 Z " fill="#35130C" transform="translate(229,350)"/>
</svg>
